<svg width="20" height="20" viewBox="0 0 20 20" fill="none" xmlns="http://www.w3.org/2000/svg">
<path fill-rule="evenodd" clip-rule="evenodd" d="M11.939 6.2247C11.9381 7.23142 11.1214 8.04689 10.1148 8.0463C9.10804 8.04571 8.29228 7.22929 8.2926 6.22257C8.29292 5.21585 9.10908 4.3999 10.1158 4.3999C10.5996 4.40012 11.0634 4.59249 11.4053 4.9347C11.7472 5.27692 11.9392 5.74095 11.939 6.2247Z" stroke="#A9B5C5" stroke-width="1.5" stroke-linecap="round" stroke-linejoin="round"/>
<path fill-rule="evenodd" clip-rule="evenodd" d="M11.9975 10.7351H8.23746C6.92379 10.7764 5.88025 11.8532 5.88025 13.1675C5.88025 14.4818 6.92379 15.5586 8.23746 15.5999H11.9975C13.3111 15.5586 14.3546 14.4818 14.3546 13.1675C14.3546 11.8532 13.3111 10.7764 11.9975 10.7351Z" stroke="#A9B5C5" stroke-width="1.5" stroke-linecap="round" stroke-linejoin="round"/>
<path fill-rule="evenodd" clip-rule="evenodd" d="M16.5503 7.61908C16.5498 8.38908 15.9253 9.01297 15.1553 9.01265C14.3853 9.01241 13.7613 8.38801 13.7615 7.61801C13.7616 6.84801 14.3859 6.22388 15.1559 6.22388C15.5258 6.22388 15.8806 6.37089 16.1421 6.63257C16.4036 6.89425 16.5504 7.24912 16.5503 7.61908Z" stroke="#A9B5C5" stroke-width="1.5" stroke-linecap="round" stroke-linejoin="round"/>
<path fill-rule="evenodd" clip-rule="evenodd" d="M3.46704 7.61901C3.46704 8.38911 4.09134 9.0134 4.86144 9.0134C5.63155 9.0134 6.25584 8.38911 6.25584 7.61901C6.25584 6.8489 5.63155 6.22461 4.86144 6.22461C4.09134 6.22461 3.46704 6.8489 3.46704 7.61901Z" stroke="#A9B5C5" stroke-width="1.5" stroke-linecap="round" stroke-linejoin="round"/>
<path d="M15.5494 10.6711C15.2181 10.6711 14.9494 10.9398 14.9494 11.2711C14.9494 11.6025 15.2181 11.8711 15.5494 11.8711V10.6711ZM16.595 11.2711L16.6074 10.6713C16.6033 10.6711 16.5992 10.6711 16.595 10.6711V11.2711ZM16.595 14.9919V15.5919C16.5992 15.5919 16.6033 15.5919 16.6074 15.5918L16.595 14.9919ZM15.5494 14.3919C15.2181 14.3919 14.9494 14.6606 14.9494 14.9919C14.9494 15.3233 15.2181 15.5919 15.5494 15.5919V14.3919ZM4.46782 11.8711C4.79919 11.8711 5.06782 11.6025 5.06782 11.2711C5.06782 10.9398 4.79919 10.6711 4.46782 10.6711V11.8711ZM3.42222 11.2711V10.6711C3.41807 10.6711 3.41393 10.6711 3.40978 10.6713L3.42222 11.2711ZM3.42222 14.9919L3.40978 15.5918C3.41393 15.5919 3.41807 15.5919 3.42222 15.5919V14.9919ZM4.46782 15.5919C4.79919 15.5919 5.06782 15.3233 5.06782 14.9919C5.06782 14.6606 4.79919 14.3919 4.46782 14.3919V15.5919ZM15.5494 11.8711H16.595V10.6711H15.5494V11.8711ZM16.5826 11.871C17.2686 11.8852 17.8172 12.4454 17.8172 13.1315H19.0172C19.0172 11.7923 17.9463 10.6991 16.6074 10.6713L16.5826 11.871ZM17.8172 13.1315C17.8172 13.8177 17.2686 14.3779 16.5826 14.3921L16.6074 15.5918C17.9463 15.564 19.0172 14.4707 19.0172 13.1315H17.8172ZM16.595 14.3919H15.5494V15.5919H16.595V14.3919ZM4.46782 10.6711H3.42222V11.8711H4.46782V10.6711ZM3.40978 10.6713C2.07089 10.6991 1 11.7923 1 13.1315H2.2C2.2 12.4454 2.74867 11.8852 3.43466 11.871L3.40978 10.6713ZM1 13.1315C1 14.4707 2.07089 15.564 3.40978 15.5918L3.43466 14.3921C2.74867 14.3779 2.2 13.8177 2.2 13.1315H1ZM3.42222 15.5919H4.46782V14.3919H3.42222V15.5919Z" fill="#A9B5C5"/>
</svg>
