<svg width="16" height="17" viewBox="0 0 16 17" fill="none" xmlns="http://www.w3.org/2000/svg">
<path d="M15.5304 2.03033C15.8232 1.73744 15.8232 1.26256 15.5304 0.96967C15.2375 0.676777 14.7626 0.676777 14.4697 0.96967L8.00001 7.43935L1.53033 0.969673C1.23744 0.67678 0.762563 0.67678 0.46967 0.969673C0.176777 1.26257 0.176777 1.73744 0.46967 2.03033L6.93935 8.50001L0.469697 14.9697C0.176804 15.2626 0.176804 15.7374 0.469697 16.0303C0.76259 16.3232 1.23746 16.3232 1.53036 16.0303L8.00001 9.56067L14.4697 16.0303C14.7626 16.3232 15.2374 16.3232 15.5303 16.0303C15.8232 15.7374 15.8232 15.2626 15.5303 14.9697L9.06067 8.50002L15.5304 2.03033Z" fill="#F5F5F5"/>
</svg>
