<svg width="18" height="18" viewBox="0 0 18 18" fill="none" xmlns="http://www.w3.org/2000/svg">
<path fill-rule="evenodd" clip-rule="evenodd" d="M9 6.1875C7.4467 6.1875 6.1875 7.4467 6.1875 9C6.1875 10.5533 7.4467 11.8125 9 11.8125C10.5533 11.8125 11.8125 10.5533 11.8125 9C11.8125 7.4467 10.5533 6.1875 9 6.1875ZM7.3125 9C7.3125 8.06802 8.06802 7.3125 9 7.3125C9.93198 7.3125 10.6875 8.06802 10.6875 9C10.6875 9.93198 9.93198 10.6875 9 10.6875C8.06802 10.6875 7.3125 9.93198 7.3125 9Z" fill="#A9B5C5"/>
<path fill-rule="evenodd" clip-rule="evenodd" d="M9 2.4375C7.39429 2.4375 5.94244 3.23174 4.7638 4.19679C3.57873 5.1671 2.60971 6.35899 1.95856 7.26601L1.90486 7.34069C1.51286 7.88538 1.19019 8.33374 1.19019 9C1.19019 9.66626 1.51286 10.1146 1.90486 10.6593L1.95856 10.734C2.60971 11.641 3.57873 12.8329 4.7638 13.8032C5.94244 14.7683 7.39429 15.5625 9 15.5625C10.6057 15.5625 12.0576 14.7683 13.2362 13.8032C14.4213 12.8329 15.3903 11.641 16.0414 10.734L16.0951 10.6593C16.4871 10.1146 16.8098 9.66626 16.8098 9C16.8098 8.33374 16.4871 7.88538 16.0951 7.3407L16.0414 7.26601C15.3903 6.35899 14.4213 5.1671 13.2362 4.19679C12.0576 3.23174 10.6057 2.4375 9 2.4375ZM2.87245 7.92209C3.4944 7.05574 4.39761 5.9506 5.4765 5.06723C6.56183 4.17859 7.76567 3.5625 9 3.5625C10.2343 3.5625 11.4382 4.17859 12.5235 5.06723C13.6024 5.9506 14.5056 7.05574 15.1276 7.92209C15.5955 8.57395 15.6848 8.73111 15.6848 9C15.6848 9.26889 15.5955 9.42605 15.1276 10.0779C14.5056 10.9443 13.6024 12.0494 12.5235 12.9328C11.4382 13.8214 10.2343 14.4375 9 14.4375C7.76567 14.4375 6.56183 13.8214 5.4765 12.9328C4.39761 12.0494 3.4944 10.9443 2.87245 10.0779C2.40448 9.42605 2.31519 9.26889 2.31519 9C2.31519 8.73111 2.40448 8.57395 2.87245 7.92209Z" fill="#A9B5C5"/>
</svg>
